<svg class="icon" style="width: 1em; height: 1em;vertical-align: middle;fill: currentColor;overflow: hidden;" viewBox="0 0 1024 1024" version="1.1" xmlns="http://www.w3.org/2000/svg"><path d="M951.097108 355.049389c0 0-17.47807-10.284227-47.148833-10.284227-29.65439 0-32.743752 7.582699-32.743752 7.582699-7.987928 5.302773-14.455223 17.275455-14.455223 26.901697l0 34.685987-0.440022 0-45.206598-208.151737c-2.077312-9.523911-11.264555-18.069541-20.603247-19.318998 0 0-91.478458-14.624069-278.18272-14.624069S234.084874 186.43104 234.084874 186.43104c-9.591449 1.215688-18.879999 9.946536-20.906146 19.352767l-44.852534 208.151737-3.731998 0 0-34.685987c0-9.625218-6.467295-21.597901-14.437827-26.901697 0 0-3.106758-7.582699-32.761148-7.582699s-47.148833 10.284227-47.148833 10.284227c-8.679683 3.580548-11.753695 13.509688-6.856152 21.649066l13.527085 22.476921c4.913916 8.173147 16.633842 14.759145 26.174126 14.759145l44.295855 0c-19.150152 0-34.703383 15.468296-34.703383 34.534538L112.68392 716.552769l0 77.849042c0 19.21769 15.553231 34.551934 34.736129 34.551934l143.743822 0c19.403932 0 38.739303-14.995529 43.653219-33.487695l14.117532-52.975539L672.407851 742.490511l14.118556 52.975539c4.930289 18.491143 24.249287 33.487695 43.652196 33.487695l143.760195 0c19.183921 0 34.720779-15.33322 34.720779-34.551934L908.659577 716.552769 908.659577 448.469058c0-19.132756-15.536858-34.534538-34.720779-34.534538l44.312228 0c9.558703 0 21.24486-6.585999 26.175149-14.759145l13.527085-22.476921C962.866153 368.559077 959.759395 358.628914 951.097108 355.049389zM309.367465 603.865267l-132.057665-12.463869c-9.490142-0.895393-18.407232-9.321296-19.910469-18.658965l-9.608845-60.017932c-1.51961-9.406231 4.526083-14.032598 13.392008-10.368138l118.496811 48.955992c8.91709 3.681856 20.417005 13.274328 25.533536 21.176298l11.938913 18.491143C322.336848 599.00047 318.958914 604.77601 309.367465 603.865267zM679.703001 668.119687l-10.588149 10.402931c-6.804986 6.670933-20.11206 12.091386-29.704532 12.091386L382.523625 690.614004c-9.592472 0-22.966061-5.40408-29.890774-12.091386l-10.773368-10.402931c-6.924713-6.66991-4.965082-12.089339 4.694929-12.089339l328.235696 0C684.314019 656.029324 686.526407 661.432381 679.703001 668.119687zM245.010715 413.968289c-9.574053-0.017396-16.042371-7.66661-14.437827-17.090237l24.554232-143.726425c1.603521-9.406231 10.604522-17.968234 20.095687-18.99768 0 0 75.248821-10.435677 233.904261-10.435677 158.654416 0 233.633085 10.435677 233.633085 10.435677 9.456373 1.080611 18.711154 9.642614 20.602224 18.796088l30.02585 145.2972c1.924839 9.28855-4.119831 16.820084-13.847379 16.802688L245.010715 413.968289zM863.942119 572.742433c-1.485841 9.337669-10.419304 17.763572-19.909445 18.658965l-132.040269 12.463869c-9.592472 0.911766-12.970406-4.864798-7.80271-12.885472l11.957333-18.491143c5.099135-7.902994 16.600073-17.495466 25.51614-21.176298l118.497834-48.955992c8.865925-3.664459 14.911618 0.961908 13.409404 10.368138L863.942119 572.742433z" /></svg>