<svg width="25" height="25" viewBox="0 0 25 25" fill="none" xmlns="http://www.w3.org/2000/svg">
<path d="M4.54467 23.6514V17.4733C4.54467 17.3244 4.4855 17.1815 4.38017 17.0762C4.27484 16.9709 4.13198 16.9117 3.98303 16.9117H1.73645C1.58749 16.9117 1.44464 16.9709 1.33931 17.0762C1.23398 17.1815 1.17481 17.3244 1.1748 17.4733V23.6514H2.29809V18.035H3.42138V23.6514H4.54467Z" fill="black"/>
<path d="M14.4521 23.8087V15.9456C14.4521 15.7967 14.3929 15.6538 14.2876 15.5485C14.1822 15.4432 14.0394 15.384 13.8904 15.384H11.6439C11.4949 15.384 11.352 15.4432 11.2467 15.5485C11.1414 15.6538 11.0822 15.7967 11.0822 15.9456V23.8087H12.2055V16.5073H13.3288V23.8087H14.4521Z" fill="black"/>
<path d="M18.7655 23.8087V15.9456C18.7655 15.7967 18.7063 15.6538 18.601 15.5485C18.4956 15.4432 18.3528 15.384 18.2038 15.384H15.9573C15.8083 15.384 15.6654 15.4432 15.5601 15.5485C15.4548 15.6538 15.3956 15.7967 15.3956 15.9456V23.8087H16.5189V16.5073H17.6422V23.8087H18.7655Z" fill="black"/>
<path d="M9.95892 23.8087V13.6991C9.95892 13.5501 9.89974 13.4073 9.79441 13.3019C9.68908 13.1966 9.54623 13.1374 9.39727 13.1374H7.15069C7.00174 13.1374 6.85888 13.1966 6.75355 13.3019C6.64823 13.4073 6.58905 13.5501 6.58905 13.6991V23.8087H7.71234V14.2607H8.83563V23.8087H9.95892Z" fill="black"/>
<path d="M23.2362 24.1007V11.1155C23.2362 10.9665 23.177 10.8237 23.0717 10.7183C22.9664 10.613 22.8235 10.5538 22.6746 10.5538H20.428C20.279 10.5538 20.1362 10.613 20.0308 10.7183C19.9255 10.8237 19.8663 10.9665 19.8663 11.1155V24.1007H20.9896V11.6771H22.1129V24.1007H23.2362Z" fill="black"/>
<path d="M2.26036 13.5346C2.3657 13.6399 2.50857 13.6991 2.65753 13.6991C2.80649 13.6991 2.94936 13.6399 3.0547 13.5346L7.69087 8.89836L12.3497 14.0748C12.4007 14.1315 12.4627 14.1772 12.5319 14.2091C12.6011 14.241 12.6762 14.2585 12.7524 14.2605C12.7573 14.2606 12.7622 14.2607 12.7671 14.2607C12.9161 14.2607 13.059 14.2015 13.1643 14.0962L20.6301 6.63036V8.08263C20.6301 8.23158 20.6893 8.37444 20.7946 8.47977C20.9 8.5851 21.0428 8.64427 21.1918 8.64427H23.4384C23.5873 8.64427 23.7302 8.5851 23.8355 8.47977C23.9408 8.37444 24 8.23158 24 8.08263V1.34289C24 1.19394 23.9408 1.05108 23.8355 0.945753C23.7302 0.840425 23.5873 0.781251 23.4384 0.78125H16.6986C16.5497 0.781251 16.4068 0.840425 16.3015 0.945753C16.1962 1.05108 16.137 1.19394 16.137 1.34289V3.58947C16.137 3.73843 16.1962 3.88128 16.3015 3.98661C16.4068 4.09194 16.5497 4.15111 16.6986 4.15112H18.1509L12.7886 9.51348L8.12979 4.33705C8.07878 4.28038 8.01677 4.23469 7.94754 4.20276C7.8783 4.17083 7.80329 4.15333 7.72707 4.15132C7.65086 4.14932 7.57503 4.16285 7.50421 4.1911C7.4334 4.21935 7.36907 4.26172 7.31516 4.31563L0.575428 11.0554C0.470104 11.1607 0.410934 11.3035 0.410934 11.4525C0.410934 11.6014 0.470104 11.7443 0.575428 11.8496L2.26036 13.5346ZM7.69087 5.52849L12.3497 10.7049C12.4007 10.7616 12.4627 10.8073 12.5319 10.8392C12.6011 10.8711 12.6762 10.8886 12.7524 10.8906C12.8286 10.8926 12.9044 10.8791 12.9752 10.8509C13.0461 10.8226 13.1104 10.7802 13.1643 10.7263L19.904 3.98661C19.9825 3.90805 20.036 3.80798 20.0577 3.69903C20.0794 3.59009 20.0682 3.47716 20.0257 3.37454C19.9832 3.27192 19.9112 3.18421 19.8189 3.12249C19.7265 3.06078 19.6179 3.02784 19.5068 3.02783H17.2603V1.90454H22.8767V7.52098H21.7534V5.27441C21.7534 5.16332 21.7205 5.05473 21.6588 4.96236C21.5971 4.87 21.5093 4.79801 21.4067 4.7555C21.3041 4.71299 21.1911 4.70187 21.0822 4.72355C20.9732 4.74522 20.8732 4.79872 20.7946 4.87727L12.7886 12.8833L8.12979 7.70692C8.07878 7.65024 8.01677 7.60454 7.94754 7.57261C7.8783 7.54068 7.80329 7.52318 7.72707 7.52119C7.72213 7.52105 7.71726 7.52098 7.71232 7.52098C7.56336 7.52099 7.42049 7.58016 7.31515 7.68549L2.65753 12.3431L1.76686 11.4525L7.69087 5.52849Z" fill="black"/>
</svg>
