<svg width="30" height="30" viewBox="0 0 30 30" fill="none" xmlns="http://www.w3.org/2000/svg">
<path d="M22.3181 19.9419L18.2728 12.9594C18.0941 12.6509 17.9373 11.4012 17.9373 10.8096V7.79976C18.5257 7.66769 18.967 7.14149 18.967 6.51367C18.967 6.49261 18.9666 6.47133 18.9654 6.4505C18.9334 5.76843 18.3566 5.25391 17.6237 5.25391H13.1287C12.3771 5.25391 11.8104 5.79544 11.8104 6.51367C11.8104 7.14149 12.2514 7.66769 12.8399 7.79976V10.8096C12.8399 11.4012 12.6831 12.6509 12.5046 12.9592L8.45931 19.9419C7.15789 22.1882 8.77654 25 11.3743 25H19.4028C21.9988 25 23.6204 22.19 22.3181 19.9419ZM19.4028 24.1211H11.3743C9.45563 24.1211 8.2572 22.044 9.21965 20.3825L13.2649 13.3998C13.6101 12.804 13.7188 11.208 13.7188 10.8096V7.83203H14.8845C15.1271 7.83203 15.3239 7.63542 15.3239 7.39258C15.3239 7.14973 15.1273 6.95312 14.8845 6.95312H13.1287C12.8863 6.95312 12.6893 6.75606 12.6893 6.51367C12.6893 6.25206 12.917 6.13281 13.1287 6.13281H17.6237C17.8391 6.13281 18.076 6.24519 18.0877 6.49239C18.0879 6.49948 18.0881 6.50658 18.0881 6.51367C18.0881 6.75606 17.8911 6.95312 17.6487 6.95312H16.64C16.3972 6.95312 16.2005 7.14973 16.2005 7.39258C16.2005 7.63542 16.3972 7.83203 16.64 7.83203H17.0584V10.8096C17.0584 11.208 17.1671 12.804 17.5125 13.3998L21.5575 20.3825C22.5195 22.0428 21.3231 24.1211 19.4028 24.1211Z" fill="black"/>
<path d="M18.953 17.2919C18.8312 17.0818 18.562 17.0104 18.3524 17.1322C18.1423 17.2539 18.0708 17.5227 18.1926 17.7328L20.1788 21.1584C20.4844 21.6858 20.1047 22.3463 19.4945 22.3463H11.6725C11.0629 22.3463 10.6823 21.6862 10.9883 21.1584L12.8475 17.9518H17.1079C17.3506 17.9518 17.5474 17.755 17.5474 17.5124C17.5474 17.2695 17.3506 17.0729 17.1079 17.0729H12.5944C12.4376 17.0729 12.2927 17.1562 12.2142 17.2917L10.228 20.7176C9.58231 21.8309 10.3848 23.2252 11.6725 23.2252H19.4945C20.7813 23.2252 21.5851 21.8318 20.9392 20.7176L18.953 17.2919Z" fill="black"/>
</svg>
