<?xml version="1.0" encoding="UTF-8" standalone="no"?><!-- Generator: Gravit.io --><svg xmlns="http://www.w3.org/2000/svg" xmlns:xlink="http://www.w3.org/1999/xlink" style="isolation:isolate" viewBox="0 0 30 30" width="30pt" height="30pt"><defs><clipPath id="_clipPath_AfC2m3NZaWdAow9NzIqwbxCK0hcrbGC4"><rect width="30" height="30"/></clipPath></defs><g clip-path="url(#_clipPath_AfC2m3NZaWdAow9NzIqwbxCK0hcrbGC4)"><path d="M 4.5 16 L 25.5 16 C 26.604 16 27.5 16.896 27.5 18 L 27.5 24 C 27.5 25.104 26.604 26 25.5 26 L 4.5 26 C 3.396 26 2.5 25.104 2.5 24 L 2.5 18 C 2.5 16.896 3.396 16 4.5 16 Z" style="stroke:none;fill:#FFFFFF;stroke-miterlimit:10;"/><path d="M 4.5 16 L 25.5 16 C 26.604 16 27.5 16.896 27.5 18 L 27.5 24 C 27.5 25.104 26.604 26 25.5 26 L 4.5 26 C 3.396 26 2.5 25.104 2.5 24 L 2.5 18 C 2.5 16.896 3.396 16 4.5 16 Z" style="fill:none;stroke:#000000;stroke-width:2;stroke-linecap:square;stroke-miterlimit:2;"/><path d=" M 3.652 16 C 3.713 15.881 3.821 15.75 3.962 15.614 L 8.765 11 L 13.568 6.386 C 14.364 5.621 15.656 5.621 16.452 6.386 L 21.255 11 L 26.058 15.614 C 26.199 15.75 26.307 15.881 26.368 16" fill="none" vector-effect="non-scaling-stroke" stroke-width="2" stroke="rgb(0,0,0)" stroke-linejoin="miter" stroke-linecap="square" stroke-miterlimit="3"/><circle vector-effect="non-scaling-stroke" cx="15.010004003203207" cy="5.5" r="2.5" fill="rgb(255,255,255)" stroke-width="1" stroke="rgb(0,0,0)" stroke-linejoin="miter" stroke-linecap="square" stroke-miterlimit="3"/><text transform="matrix(0.394,0,0,0.394,7.712,24.142)" style="font-family:'Oxygen';font-weight:700;font-size:20px;font-style:normal;fill:#000000;stroke:none;">sell</text></g></svg>